PathFileType	4	(X/Y/Z)	C:\Users\Biomechanik\SynologyDrive\AlexP\Athlete_03\Athlete_3_25_03_31\Squat_bw_01\marker_experimental.trc
DataRate	CameraRate	NumFrames	NumMarkers	Units	OrigDataRate	OrigDataStartFrame	OrigNumFrames
200.000000	200.000000	4	55	mm	200.000000	531	708
Frame#	Time	BL			BR			GLAB			RFHD			LFHD			C7			T6			SPINMOL			SPINM2			SPINM3			T12			BELTOL			BELT2			BELT3			SACROL			SACR2			SACR3			LTHOL			LTH2			LTH3			LSHAOL			LSHA2			LSHA3			LHEE			LTOE			LM5			RTHOL			RTH2			RTH3			RSHAOL			RSHA2			RSHA3			RHEE			RTOE			RM5			STRN			XIPH			LACR			LUAOL			LUA2			LUA3			LLAOL			LLA2			LLA3			LWRR			LWRU			RACR			RUAOL			RUA2			RUA3			RLAOL			RLA2			RLA3			RWRR			RWRU			
		X1	Y1	Z1	X2	Y2	Z2	X3	Y3	Z3	X4	Y4	Z4	X5	Y5	Z5	X6	Y6	Z6	X7	Y7	Z7	X8	Y8	Z8	X9	Y9	Z9	X10	Y10	Z10	X11	Y11	Z11	X12	Y12	Z12	X13	Y13	Z13	X14	Y14	Z14	X15	Y15	Z15	X16	Y16	Z16	X17	Y17	Z17	X18	Y18	Z18	X19	Y19	Z19	X20	Y20	Z20	X21	Y21	Z21	X22	Y22	Z22	X23	Y23	Z23	X24	Y24	Z24	X25	Y25	Z25	X26	Y26	Z26	X27	Y27	Z27	X28	Y28	Z28	X29	Y29	Z29	X30	Y30	Z30	X31	Y31	Z31	X32	Y32	Z32	X33	Y33	Z33	X34	Y34	Z34	X35	Y35	Z35	X36	Y36	Z36	X37	Y37	Z37	X38	Y38	Z38	X39	Y39	Z39	X40	Y40	Z40	X41	Y41	Z41	X42	Y42	Z42	X43	Y43	Z43	X44	Y44	Z44	X45	Y45	Z45	X46	Y46	Z46	X47	Y47	Z47	X48	Y48	Z48	X49	Y49	Z49	X50	Y50	Z50	X51	Y51	Z51	X52	Y52	Z52	X53	Y53	Z53	X54	Y54	Z54	X55	Y55	Z55	

532	2.655	960.6990966796875	36.22004699707043	-1933.541259765625	1063.190795898438	32.89443588256835	86.65012359619141	547.3672485351562	941.5968627929689	-1199.361938476562	501.2499084472656	974.9679565429689	-1136.606079101562	508.8353271484375	970.6148071289064	-1272.84716796875	274.8425598144531	867.4837036132814	-1205.216430664062	141.6875915527344	769.4588012695314	-1212.749267578125	118.8042907714844	745.5018310546876	-1235.079833984375	108.5544967651367	739.8923950195314	-1186.258422851562	76.68762969970703	695.5518188476564	-1223.771728515625	45.90964889526367	645.6737670898439	-1222.764892578125	11.12186908721924	636.6613769531251	-1238.90380859375	9.976560592651367	632.5817871093751	-1188.828002929688	-23.33149337768555	583.3002929687501	-1219.431274414062	-70.16111755371094	455.6798095703126	-1244.435302734375	-67.79611206054688	454.6132202148438	-1193.131469726562	-75.37196350097656	394.1180725097657	-1219.422241210938	148.1385040283203	365.4253540039064	-1510.2890625	203.00537109375	315.3786926269532	-1536.426391601562	200.7392578125	365.3549194335939	-1541.504638671875	246.9471282958984	291.8287658691407	-1619.443603515625	185.1948394775391	253.462615966797	-1586.524536132812	227.6456146240234	234.6390380859376	-1605.953369140625	113.0940093994141	70.84677124023446	-1472.480346679688	317.1714477539062	47.66337203979501	-1543.952514648438	239.3304748535156	28.39178276062022	-1626.828247070312	126.5043258666992	353.9261779785157	-920.1176147460938	162.2262420654297	416.2153015136719	-884.3788452148438	176.1329498291016	368.3792114257813	-885.0745239257812	220.575927734375	305.9134826660157	-806.3707275390625	223.5688323974609	227.0547637939454	-807.939208984375	190.6121368408203	256.9305419921876	-830.6453857421875	97.28867340087891	65.9566268920899	-969.1607055664062	286.8019409179688	45.79457855224615	-882.541748046875	202.9613494873047	40.47769546508794	-804.2269897460938	388.5463256835938	700.6769409179689	-1209.402221679688	332.35302734375	564.3145751953126	-1208.535400390625	337.5032958984375	816.0522460937501	-1370.447998046875	246.5671691894531	731.3657226562501	-1493.104614257812	195.9182281494141	693.9473266601564	-1513.598510742188	240.7762145996094	683.5878295898439	-1537.375	261.893798828125	615.5159912109376	-1620.884765625	335.5955810546875	586.0837402343751	-1616.83154296875	320.2155151367188	634.7029418945314	-1616.550537109375	409.0933227539062	688.0657958984376	-1606.69384765625	399.1824035644531	691.5717773437501	-1529.236938476562	326.9873046875	812.7827758789064	-1058.156127929688	240.0048217773438	737.5869750976564	-936.80029296875	226.6996154785156	697.8480224609375	-885.9774169921875	190.4038391113281	696.3804931640625	-923.1078491210938	273.0423583984375	646.3516845703125	-785.4182739257812	297.7853393554688	721.409423828125	-796.3696899414062	325.6925659179688	679.495361328125	-791.80859375	386.8529052734375	749.345947265625	-811.0307006835938	381.1654663085938	747.3145141601562	-889.3327026367188	
533	2.66	960.699462890625	36.21990966796887	-1933.541259765625	1063.190795898438	32.89451217651366	86.64972686767578	547.2938232421875	943.7996826171876	-1199.482421875	501.1817321777344	977.1533813476564	-1136.720458984375	508.7129821777344	972.7780761718751	-1272.955078125	274.8371276855469	869.4833984375001	-1205.20166015625	141.7477264404297	771.3621826171876	-1212.727661132812	118.9328231811523	747.4039306640626	-1235.056030273438	108.6511077880859	741.8077392578126	-1186.218627929688	76.78750610351562	697.4712524414064	-1223.76171875	46.14413452148438	647.6437988281251	-1222.72900390625	11.35349178314209	638.6721191406251	-1238.861083984375	10.18472576141357	634.6142578125001	-1188.787231445312	-23.224609375	585.3897094726564	-1219.41064453125	-70.48624420166016	458.1222839355469	-1244.425415039062	-68.18611907958984	457.0495910644532	-1193.116577148438	-75.93302917480469	396.5873107910157	-1219.4169921875	147.6583251953125	366.6949462890626	-1510.24072265625	202.3204956054688	316.2664489746095	-1536.185546875	200.3237609863281	366.2337951660157	-1541.388916015625	246.6356811523438	291.9806213378907	-1619.394409179688	184.9303131103516	253.5294799804688	-1586.489624023438	227.3921203613281	234.7627410888673	-1605.943603515625	113.0254440307617	70.83042907714852	-1472.573608398438	317.1164245605469	47.73583602905283	-1544.046142578125	239.3024291992188	28.32047080993662	-1626.889038085938	125.9849319458008	355.2030639648438	-920.1687622070312	162.0645294189453	417.1999206542969	-884.3002319335938	175.7427825927734	369.3049621582032	-885.1701049804688	220.3247680664062	306.0441589355469	-806.4232177734375	223.3287200927734	227.1856384277344	-807.9326782226562	190.3468017578125	257.0428161621094	-830.6415405273438	97.18943023681641	65.92796325683599	-969.055419921875	286.801025390625	45.84236526489263	-882.44287109375	202.8990783691406	40.41634750366216	-804.16015625	388.4775390625	702.6173095703126	-1209.385986328125	332.3172607421875	566.1302490234376	-1208.558349609375	337.4342956542969	818.0156860351564	-1370.458129882812	246.4819946289062	733.2349243164064	-1493.043212890625	195.8450469970703	695.7761230468751	-1513.486938476562	240.6561279296875	685.4737548828126	-1537.316772460938	261.789794921875	617.3630981445314	-1620.810180664062	335.5130004882812	587.9810791015626	-1616.820068359375	320.1094970703125	636.5790405273439	-1616.5263671875	408.9466247558594	690.0153198242189	-1606.782836914062	399.1249694824219	693.5289916992189	-1529.315673828125	326.9435119628906	814.7077026367189	-1058.140991210938	239.8478240966797	739.4495849609376	-936.871337890625	226.4715270996094	699.6701049804688	-886.0970458984375	190.2129211425781	698.2550659179688	-923.2545776367188	272.6985473632812	648.0809326171875	-785.5260009765625	297.4634399414062	723.1541137695312	-796.3843994140625	325.3583984375	681.249755859375	-791.759033203125	386.5601501464844	751.0853271484375	-810.912109375	380.8302612304688	749.1890869140625	-889.279541015625	
534	2.665	960.6998291015625	36.21969985961926	-1933.54150390625	1063.190795898438	32.89446640014648	86.64927673339844	547.22314453125	946.1127929687501	-1199.609130859375	501.1185302734375	979.4492797851564	-1136.8388671875	508.59033203125	975.0517578125001	-1273.067260742188	274.8361511230469	871.5910034179689	-1205.186767578125	141.8125610351562	773.3693237304689	-1212.704833984375	119.0639495849609	749.4079589843751	-1235.029907226562	108.750617980957	743.8257446289064	-1186.1796875	76.89365386962891	699.4904174804689	-1223.74853515625	46.37557983398438	649.7000732421876	-1222.689086914062	11.58295917510986	640.7656860351564	-1238.815551757812	10.39026546478271	636.7343750000001	-1188.739501953125	-23.1231689453125	587.5639648437501	-1219.3876953125	-70.81507873535156	460.6757202148438	-1244.412353515625	-68.58133697509766	459.5960083007813	-1193.09765625	-76.49369812011719	399.1661987304688	-1219.40966796875	147.1656188964844	368.0365295410157	-1510.193237304688	201.6089172363281	317.2049560546876	-1535.943603515625	199.8927459716797	367.167938232422	-1541.275634765625	246.3138427734375	292.1372070312501	-1619.34814453125	184.6570739746094	253.5994262695313	-1586.45654296875	227.1298370361328	234.8906707763673	-1605.936767578125	112.9546508789062	70.8151168823243	-1472.669555664062	317.0596313476562	47.8098907470704	-1544.142333984375	239.2744445800781	28.24795532226572	-1626.950073242188	125.4523620605469	356.5500488281251	-920.21533203125	161.9056701660156	418.2389831542969	-884.211669921875	175.3415222167969	370.2832336425782	-885.2597045898438	220.0688629150391	306.1767883300782	-806.47509765625	223.0841674804688	227.3184204101563	-807.924072265625	190.0778045654297	257.1553955078126	-830.6348266601562	97.09129333496094	65.89840698242193	-968.9505004882812	286.7987976074219	45.89040374755865	-882.3442993164062	202.8372192382812	40.35470581054692	-804.0936279296875	388.4108581542969	704.6693115234376	-1209.369140625	332.2789306640625	568.0665283203126	-1208.581787109375	337.3703002929688	820.0901489257814	-1370.467529296875	246.3987274169922	735.2182006835939	-1492.979736328125	195.7732238769531	697.7190551757814	-1513.375732421875	240.5334167480469	687.4796142578126	-1537.263549804688	261.6887817382812	619.3264160156251	-1620.73681640625	335.4342346191406	589.9926147460939	-1616.807983398438	320.006591796875	638.5701293945314	-1616.499145507812	408.8021850585938	692.0803222656251	-1606.8681640625	399.0665283203125	695.6040649414064	-1529.390380859375	326.9070129394531	816.7386474609376	-1058.12744140625	239.7018737792969	741.4116821289064	-936.940673828125	226.2574005126953	701.5913696289062	-886.2181396484375	190.0321960449219	700.2317504882812	-923.39892578125	272.3696899414062	649.9026489257812	-785.6370239257812	297.1576232910156	724.9912109375	-796.3983764648438	325.0396423339844	683.0950317382812	-791.7119140625	386.2821044921875	752.9163818359375	-810.7943115234375	380.4693298339844	751.1779174804688	-889.2434692382812	
535	2.67	960.7001953125	36.21952819824231	-1933.541748046875	1063.190795898438	32.8942756652832	86.64879608154297	547.1537475585938	948.5375976562501	-1199.741577148438	501.0585021972656	981.8576049804689	-1136.9609375	508.4658508300781	977.4372558593751	-1273.183227539062	274.83837890625	873.8078002929689	-1205.171875	141.8807373046875	775.4807128906251	-1212.681030273438	119.1961822509766	751.5141601562501	-1235.001708984375	108.8517303466797	745.9469604492189	-1186.142578125	77.00532531738281	701.6090698242189	-1223.732299804688	46.60200119018555	651.8414916992189	-1222.6455078125	11.80975723266602	642.9403076171876	-1238.767456054688	10.59064292907715	638.9406738281251	-1188.685302734375	-23.02819061279297	589.8212890625001	-1219.362426757812	-71.14620208740234	463.3384704589844	-1244.395385742188	-68.98023223876953	462.2502441406251	-1193.074340820312	-77.05225372314453	401.8534545898438	-1219.400756835938	146.6634979248047	369.4475708007814	-1510.14697265625	200.8736267089844	318.1924438476564	-1535.700927734375	199.4477996826172	368.1568298339845	-1541.1650390625	245.9823608398438	292.2981872558595	-1619.304809570312	184.3757629394531	253.6723632812501	-1586.425537109375	226.8594055175781	235.0224761962891	-1605.932739257812	112.8820266723633	70.80113983154305	-1472.767944335938	317.0010681152344	47.88529968261728	-1544.241088867188	239.2462921142578	28.17456817626963	-1627.011474609375	124.9084243774414	357.9657592773438	-920.2572021484375	161.7497406005859	419.3311767578126	-884.112548828125	174.9299774169922	371.3130798339844	-885.3428955078125	219.8076171875	306.3113708496094	-806.5260620117188	222.8347473144531	227.4530487060547	-807.9129638671875	189.8050384521484	257.2683715820313	-830.6255493164062	96.99397277832031	65.86862945556646	-968.8461303710938	286.7952880859375	45.93861389160162	-882.2459106445312	202.77587890625	40.29278945922857	-804.0274658203125	388.3458557128906	706.8347167968751	-1209.350830078125	332.2376098632812	570.1255493164064	-1208.604370117188	337.3116149902344	822.2755126953126	-1370.475708007812	246.3176116943359	737.3164062500001	-1492.914916992188	195.7024841308594	699.7777099609376	-1513.265014648438	240.4077606201172	689.6057739257814	-1537.215698242188	261.5893249511719	621.4073486328126	-1620.6650390625	335.3577880859375	592.1192626953126	-1616.795532226562	319.9053955078125	640.6772460937501	-1616.468994140625	408.6589050292969	694.2617187500001	-1606.94970703125	399.0056762695312	697.7976074218751	-1529.461059570312	326.8765258789062	818.8782958984376	-1058.114135742188	239.5669250488281	743.4751586914064	-937.0075073242188	226.0572204589844	703.6143798828125	-886.3395385742188	189.8621063232422	702.3117065429688	-923.5400390625	272.0567932128906	651.8189697265625	-785.7506713867188	296.8687133789062	726.9230346679688	-796.4111328125	324.7370910644531	685.0327758789062	-791.6693115234375	386.0194091796875	754.8413696289062	-810.6779174804688	380.0783081054688	753.2846069335938	-889.226806640625	
